<?xml version="1.0" encoding="utf-8"?>
<!-- Generator: Adobe Illustrator 13.0.2, SVG Export Plug-In . SVG Version: 6.00 Build 14948)  -->
<!DOCTYPE svg PUBLIC "-//W3C//DTD SVG 1.1//EN" "http://www.w3.org/Graphics/SVG/1.1/DTD/svg11.dtd">
<svg version="1.1" id="Layer_1" xmlns="http://www.w3.org/2000/svg" xmlns:xlink="http://www.w3.org/1999/xlink" x="0px" y="0px"
	 width="720px" height="720px" viewBox="0 0 52.428 52.406" enable-background="new 0 0 52.428 52.406" xml:space="preserve">
<g>
	<g>
		<path fill-rule="evenodd" clip-rule="evenodd" fill="#00417E" d="M50.658,22.023c0.156-0.021,0.295,0.015,0.419,0.109
			c0.124,0.094,0.197,0.219,0.219,0.374c0.021,0.154-0.015,0.293-0.109,0.418c-0.093,0.124-0.217,0.197-0.372,0.219
			c-0.153,0.021-0.293-0.015-0.419-0.109c-0.126-0.096-0.2-0.22-0.221-0.373c-0.022-0.155,0.014-0.296,0.109-0.419
			C50.379,22.118,50.503,22.045,50.658,22.023 M48.303,18.57l2.706-0.775l0.553,1.929l-0.337,0.096l-0.448-1.564l-0.808,0.23
			l0.415,1.446l-0.316,0.091l-0.415-1.445l-0.907,0.26l0.457,1.596l-0.338,0.097L48.303,18.57z M48.988,17.431l0.157,0.336
			c-0.318,0.13-0.615,0.139-0.89,0.028c-0.276-0.111-0.487-0.322-0.632-0.634c-0.167-0.359-0.176-0.697-0.027-1.016
			c0.15-0.317,0.441-0.578,0.874-0.778c0.4-0.188,0.766-0.229,1.101-0.124c0.334,0.104,0.586,0.338,0.755,0.699
			c0.135,0.289,0.17,0.561,0.107,0.813c-0.063,0.254-0.216,0.455-0.46,0.604l-0.158-0.34c0.153-0.11,0.247-0.248,0.281-0.411
			c0.034-0.164,0.006-0.342-0.084-0.537c-0.121-0.258-0.305-0.416-0.553-0.474c-0.247-0.058-0.536-0.01-0.867,0.145
			c-0.311,0.145-0.527,0.336-0.645,0.571c-0.12,0.236-0.122,0.477-0.008,0.722c0.097,0.209,0.242,0.35,0.435,0.422
			C48.565,17.529,48.77,17.521,48.988,17.431z M48.448,12.439l0.546,0.945c0.088,0.153,0.146,0.269,0.175,0.349
			s0.044,0.157,0.046,0.233c0.003,0.135-0.03,0.258-0.099,0.37c-0.07,0.11-0.172,0.206-0.308,0.284
			c-0.132,0.075-0.26,0.112-0.386,0.109c-0.125-0.002-0.247-0.044-0.364-0.125c0.028,0.111,0.023,0.204-0.017,0.28
			c-0.04,0.077-0.131,0.164-0.276,0.26l-0.386,0.261c-0.082,0.056-0.14,0.104-0.173,0.146c-0.033,0.041-0.048,0.084-0.046,0.128
			l-0.068,0.04l-0.22-0.382c0.033-0.062,0.129-0.146,0.289-0.253c0.004-0.003,0.007-0.005,0.01-0.006l0.306-0.203
			c0.157-0.105,0.243-0.201,0.257-0.288c0.015-0.086-0.045-0.246-0.18-0.48l-0.31-0.536L46.2,14.174l-0.189-0.327L48.448,12.439z
			 M48.349,12.929l-0.825,0.477l0.326,0.566c0.118,0.204,0.234,0.329,0.349,0.375c0.115,0.046,0.25,0.025,0.405-0.065
			c0.144-0.083,0.222-0.181,0.237-0.295c0.013-0.113-0.042-0.277-0.165-0.491L48.349,12.929z M44.64,11.874l2.277-1.654l1.179,1.623
			l-0.283,0.205l-0.957-1.317l-0.68,0.494l0.884,1.216l-0.265,0.194l-0.884-1.217l-0.764,0.555l0.976,1.343l-0.285,0.207
			L44.64,11.874z M44.496,8.126l-1.724,1.665l-0.245-0.253l2.025-1.955l0.379,0.393l-1.064,1.997
			c-0.029,0.058-0.054,0.101-0.071,0.132c-0.018,0.03-0.034,0.057-0.049,0.077c0.041-0.025,0.078-0.047,0.112-0.064
			c0.034-0.02,0.067-0.035,0.098-0.051l2.051-0.976l0.38,0.394l-2.024,1.955l-0.257-0.267l1.724-1.665
			c-0.035,0.021-0.072,0.043-0.109,0.063c-0.038,0.021-0.076,0.04-0.114,0.06l-2.051,0.973l-0.25-0.259l1.056-2.003
			c0.017-0.034,0.036-0.069,0.059-0.104C44.444,8.202,44.469,8.165,44.496,8.126z M41.98,5.831l-1.541,1.836l-0.27-0.227
			l1.809-2.154l0.419,0.351l-0.85,2.097c-0.023,0.061-0.043,0.106-0.057,0.139c-0.014,0.031-0.028,0.06-0.04,0.083
			c0.038-0.03,0.072-0.057,0.104-0.078c0.032-0.021,0.063-0.041,0.092-0.06l1.938-1.185l0.42,0.352l-1.809,2.156l-0.284-0.238
			l1.541-1.837c-0.033,0.026-0.067,0.05-0.103,0.075c-0.035,0.024-0.071,0.048-0.107,0.071l-1.937,1.182l-0.276-0.231L41.87,6.06
			c0.013-0.035,0.029-0.072,0.047-0.109C41.936,5.913,41.957,5.873,41.98,5.831z M38.326,4.587c0.247-0.395,0.539-0.641,0.878-0.736
			c0.339-0.097,0.686-0.035,1.04,0.187c0.354,0.221,0.56,0.504,0.621,0.85s-0.032,0.717-0.279,1.112
			c-0.246,0.394-0.538,0.64-0.876,0.736c-0.338,0.099-0.684,0.036-1.037-0.185c-0.354-0.221-0.562-0.505-0.623-0.853
			C37.988,5.352,38.08,4.98,38.326,4.587z M38.662,4.796c-0.191,0.306-0.27,0.589-0.236,0.849c0.032,0.26,0.174,0.469,0.423,0.624
			c0.249,0.156,0.497,0.191,0.744,0.106s0.467-0.28,0.658-0.586c0.191-0.307,0.271-0.589,0.238-0.849
			c-0.032-0.259-0.173-0.466-0.421-0.622c-0.249-0.154-0.498-0.191-0.746-0.107C39.073,4.295,38.853,4.489,38.662,4.796z
			 M37.499,4.516l0.338,0.151c-0.154,0.306-0.372,0.508-0.653,0.604c-0.281,0.098-0.578,0.076-0.892-0.063
			c-0.362-0.161-0.591-0.41-0.687-0.749c-0.095-0.337-0.046-0.726,0.149-1.161c0.179-0.403,0.429-0.674,0.749-0.815
			c0.321-0.141,0.664-0.13,1.029,0.032c0.291,0.13,0.496,0.312,0.614,0.544c0.12,0.233,0.136,0.485,0.049,0.757l-0.342-0.151
			c0.043-0.185,0.024-0.351-0.058-0.495c-0.081-0.146-0.22-0.263-0.415-0.35c-0.261-0.115-0.503-0.114-0.728,0.004
			s-0.412,0.345-0.56,0.678c-0.14,0.313-0.177,0.599-0.112,0.854c0.065,0.257,0.221,0.44,0.467,0.55
			c0.211,0.094,0.413,0.104,0.605,0.033C37.244,4.868,37.393,4.727,37.499,4.516z M32.171,3.608l0.728-2.719l1.825,0.489
			l-0.091,0.342l-1.456-0.39l-0.219,0.814l1.271,0.341L34.14,2.818l-1.271-0.341l-0.329,1.23L32.171,3.608z M29.4,1.592
			c0.081-0.457,0.261-0.795,0.539-1.011c0.278-0.218,0.623-0.289,1.034-0.218c0.41,0.072,0.708,0.259,0.894,0.557
			c0.186,0.298,0.239,0.676,0.158,1.135c-0.081,0.457-0.259,0.795-0.537,1.012c-0.276,0.218-0.62,0.289-1.03,0.218
			c-0.411-0.073-0.71-0.26-0.898-0.558C29.373,2.428,29.32,2.05,29.4,1.592z M29.79,1.661c-0.062,0.354-0.029,0.646,0.099,0.875
			c0.128,0.229,0.337,0.368,0.627,0.42c0.288,0.051,0.531-0.01,0.729-0.182c0.197-0.171,0.328-0.434,0.39-0.789
			c0.063-0.355,0.031-0.647-0.096-0.876c-0.128-0.228-0.336-0.367-0.624-0.418c-0.289-0.051-0.534,0.009-0.732,0.18
			C29.984,1.041,29.853,1.305,29.79,1.661z M26.673,2.842l0.043-2.471l-0.888-0.017l0.006-0.342l2.16,0.038l-0.006,0.342L27.1,0.377
			l-0.043,2.472L26.673,2.842z M23.311,2.962l-0.196-2.808l0.418-0.028l1.453,1.946c0.032,0.043,0.061,0.083,0.086,0.121
			C25.096,2.23,25.115,2.267,25.13,2.3l-0.159-2.275L25.335,0l0.197,2.807l-0.414,0.029l-1.484-1.975
			C23.611,0.832,23.59,0.8,23.571,0.767c-0.02-0.034-0.039-0.069-0.057-0.105l0.159,2.275L23.311,2.962z M20.936,3.399l-0.489-2.771
			l1.976-0.35l0.06,0.346L20.88,0.906l0.146,0.828l1.481-0.261l0.057,0.323l-1.481,0.261l0.164,0.93L22.882,2.7l0.061,0.346
			L20.936,3.399z M17.513,1.948l0.741,2.28L17.92,4.337l-0.87-2.676l0.52-0.169l1.328,1.831c0.039,0.053,0.067,0.093,0.087,0.121
			c0.019,0.03,0.035,0.057,0.048,0.078c-0.005-0.047-0.008-0.09-0.01-0.129c-0.001-0.038-0.002-0.075-0.002-0.109l0.022-2.271
			l0.522-0.169l0.869,2.676l-0.352,0.115l-0.741-2.28c0.004,0.041,0.007,0.083,0.009,0.126s0.003,0.086,0.003,0.128l-0.024,2.271
			L18.986,3.99l-1.337-1.827c-0.023-0.03-0.046-0.063-0.068-0.099C17.559,2.028,17.536,1.989,17.513,1.948z M16.524,4.955
			l-1.006-2.26l-0.811,0.362l-0.139-0.312l1.974-0.878l0.139,0.312L15.869,2.54l1.006,2.259L16.524,4.955z M12.381,3.936
			l0.954-0.529c0.155-0.086,0.272-0.142,0.353-0.169c0.08-0.026,0.158-0.041,0.233-0.043c0.135,0,0.258,0.036,0.368,0.107
			c0.11,0.071,0.203,0.175,0.279,0.312c0.074,0.133,0.108,0.262,0.104,0.388c-0.005,0.125-0.049,0.246-0.132,0.361
			c0.111-0.025,0.204-0.019,0.28,0.022s0.161,0.134,0.255,0.28l0.253,0.39c0.054,0.084,0.101,0.143,0.142,0.176
			s0.084,0.049,0.128,0.048l0.038,0.069l-0.385,0.214c-0.06-0.034-0.143-0.132-0.248-0.294c-0.002-0.004-0.004-0.007-0.006-0.01
			L14.8,4.95c-0.103-0.159-0.197-0.247-0.284-0.264c-0.086-0.016-0.247,0.041-0.483,0.172l-0.542,0.301l0.585,1.055l-0.331,0.183
			L12.381,3.936z M12.868,4.043l0.463,0.834l0.571-0.317c0.206-0.114,0.333-0.228,0.381-0.342c0.048-0.114,0.029-0.249-0.057-0.405
			c-0.081-0.146-0.178-0.226-0.292-0.242c-0.113-0.016-0.278,0.036-0.494,0.156L12.868,4.043z M11.534,7.997l-0.758-2.904
			l0.346-0.242l2.473,1.703l-0.339,0.238l-0.727-0.519L11.622,6.91l0.236,0.86L11.534,7.997z M11.53,6.572l0.718-0.503l-1.069-0.768
			L11.53,6.572z M10.209,9.205L8.4,7.05l0.793-0.666C9.322,6.275,9.425,6.2,9.503,6.156c0.079-0.044,0.156-0.073,0.233-0.088
			c0.128-0.026,0.255-0.012,0.38,0.042c0.126,0.055,0.241,0.146,0.347,0.271c0.1,0.12,0.166,0.246,0.196,0.377
			c0.03,0.131,0.023,0.262-0.02,0.391c-0.026,0.075-0.068,0.148-0.127,0.221c-0.059,0.07-0.168,0.174-0.328,0.309L9.739,8.051
			l0.763,0.909L10.209,9.205z M9.521,7.791l0.491-0.413c0.171-0.144,0.268-0.271,0.289-0.382c0.022-0.112-0.022-0.234-0.134-0.367
			c-0.107-0.127-0.218-0.191-0.332-0.19C9.721,6.439,9.586,6.506,9.429,6.638L8.915,7.068L9.521,7.791z M8.516,10.942L6.492,8.987
			l1.393-1.442l0.252,0.243L7.006,8.959L7.61,9.543l1.045-1.082l0.236,0.228L7.847,9.771l0.679,0.656l1.153-1.195l0.253,0.245
			L8.516,10.942z M6.872,13.038l-2.187-1.771l0.675-0.832C5.607,10.13,5.887,9.97,6.2,9.956c0.313-0.016,0.641,0.116,0.985,0.395
			c0.355,0.288,0.564,0.596,0.625,0.923c0.062,0.328-0.029,0.643-0.273,0.943L6.872,13.038z M5.592,10.664l-0.414,0.511l1.667,1.35
			l0.414-0.511c0.177-0.218,0.24-0.441,0.189-0.668c-0.052-0.227-0.217-0.453-0.495-0.678c-0.266-0.216-0.516-0.324-0.75-0.325
			C5.969,10.342,5.766,10.448,5.592,10.664z M5.841,14.816l-0.369-0.213l0.196-0.339l0.369,0.213L5.841,14.816z M3.87,16.755
			l0.156-0.334c0.186,0.083,0.362,0.09,0.527,0.021c0.166-0.068,0.295-0.203,0.388-0.401c0.092-0.198,0.123-0.373,0.093-0.525
			c-0.03-0.153-0.117-0.262-0.26-0.329c-0.195-0.091-0.443,0.054-0.743,0.434c-0.018,0.022-0.032,0.04-0.042,0.052
			c-0.243,0.309-0.441,0.495-0.594,0.559c-0.153,0.064-0.322,0.054-0.508-0.033c-0.228-0.105-0.371-0.273-0.432-0.505
			c-0.06-0.23-0.026-0.483,0.102-0.76c0.132-0.282,0.307-0.469,0.528-0.562c0.22-0.095,0.457-0.084,0.711,0.031l-0.153,0.332
			c-0.176-0.067-0.334-0.071-0.474-0.01c-0.139,0.062-0.252,0.184-0.336,0.365c-0.079,0.17-0.105,0.323-0.078,0.459
			s0.102,0.232,0.226,0.291c0.197,0.092,0.442-0.05,0.735-0.425c0.044-0.056,0.078-0.099,0.101-0.127
			c0.005-0.008,0.013-0.019,0.026-0.033c0.194-0.244,0.35-0.394,0.468-0.447c0.089-0.042,0.184-0.061,0.283-0.058
			c0.099,0.002,0.2,0.027,0.301,0.074c0.246,0.115,0.401,0.295,0.464,0.538c0.063,0.244,0.025,0.517-0.115,0.816
			c-0.144,0.309-0.335,0.514-0.572,0.613C4.436,16.891,4.168,16.879,3.87,16.755z M4.405,17.927l-0.395-0.16l0.147-0.363
			l0.395,0.159L4.405,17.927z M2.581,20.098l-1.679-0.482l0.106-0.366L2.69,19.73c0.253,0.073,0.456,0.071,0.61-0.006
			c0.153-0.078,0.264-0.234,0.331-0.469c0.067-0.233,0.055-0.424-0.035-0.574c-0.09-0.149-0.26-0.26-0.51-0.332l-1.682-0.481
			l0.106-0.369l1.678,0.48c0.362,0.104,0.61,0.276,0.742,0.517c0.133,0.239,0.147,0.541,0.043,0.903
			c-0.096,0.337-0.261,0.565-0.493,0.682C3.248,20.196,2.948,20.203,2.581,20.098z M1.642,23.132
			c-0.155-0.022-0.279-0.096-0.372-0.221c-0.093-0.125-0.129-0.266-0.107-0.421c0.021-0.153,0.095-0.277,0.219-0.37
			c0.124-0.095,0.264-0.131,0.418-0.109c0.153,0.021,0.278,0.096,0.373,0.222c0.094,0.126,0.131,0.267,0.11,0.419
			c-0.022,0.156-0.096,0.28-0.221,0.373C1.937,23.118,1.797,23.152,1.642,23.132z"/>
		<path fill-rule="evenodd" clip-rule="evenodd" fill="#00417E" d="M25.764,27.326c0.01,0.046,0.015,0.094,0.015,0.144
			c0,0.375-0.284,0.682-0.632,0.682s-0.632-0.307-0.632-0.682c0-0.05,0.005-0.098,0.014-0.144c0.376-0.095,0.263-0.119,0.263,0.144
			c0,0.211,0.159,0.383,0.355,0.383c0.195,0,0.355-0.172,0.355-0.383C25.502,27.207,25.388,27.231,25.764,27.326 M26.219,46.842
			c-6.833,0-12.91-3.34-16.684-8.47l8.105-1.879c0.257-0.061,0.135-0.334-0.042-0.305l-8.485,1.589
			c-1.025-1.5-1.858-3.141-2.463-4.887l10.207,0.466c0.139,0.006,0.123-0.26-0.049-0.27L6.397,32.114
			c-0.534-1.765-0.839-3.63-0.877-5.557l11.531,3.782c0.125,0.041,0.132-0.253,0.024-0.288L5.519,25.751
			c0.031-1.673,0.263-3.299,0.672-4.855l12.878,5.695c0.976,0.51,1.656,1.594,1.664,2.432c0.011,1.148-1.329,2.332-1.345,3.37
			c-0.008,0.48,0.195,1.285,0.704,1.285l2.521-0.005c0.163-0.018,0.208-0.241,0.261-0.355l1.356-2.897
			c0.125-0.332,0.043-0.847-0.299-0.85l-0.968-0.011c-0.197-0.002-0.38,0.123-0.462,0.215c-0.073,0.084-0.122,0.183-0.18,0.263
			h-0.052c-0.171-0.225-0.283-0.925-0.29-1.489c-0.006-0.445,0.151-1.284,0.796-1.299c0.12-0.003,0.417-0.002,0.639-0.031
			c0.08-0.011,0.079-0.154,0.103-0.231c0.086-0.268,0.262-0.667,1.024-0.636l2.44-0.003c0.718-0.016,1.188,0.533,1.363,1.542
			l0.917,5.281c0.061,0.341,0.061,0.502,0.398,0.527l3.004-0.021c0.51-0.003,0.732-0.766,0.725-1.246
			c-0.017-1.038-1.48-2.478-1.47-3.625c0.008-0.838,0.548-1.706,1.524-2.216l12.804-5.698c0.409,1.558,0.641,3.185,0.672,4.858
			l-11.555,4.301c-0.108,0.035-0.101,0.329,0.023,0.288l11.532-3.782c-0.039,1.927-0.343,3.792-0.878,5.557l-10.41,0.973
			c-0.172,0.01-0.189,0.275-0.05,0.27l10.208-0.466c-0.606,1.746-1.439,3.387-2.464,4.887l-8.484-1.589
			c-0.178-0.029-0.299,0.244-0.043,0.305l8.106,1.879C39.128,43.502,33.052,46.842,26.219,46.842z"/>
		<path fill-rule="evenodd" clip-rule="evenodd" fill="#00417E" d="M41.435,12.126c2.06,2.234,3.638,4.922,4.561,7.892
			c-0.215,0.132-0.432,0.261-0.65,0.389c-0.952-3.164-2.671-6.002-4.939-8.296c-3.198-3.233-7.486-5.386-12.256-5.848
			c2.407,1.511,4.483,3.472,6.097,5.757c2.339,3.312,3.708,7.302,3.708,11.592c0,0.04,0,0.081,0,0.121
			c-0.245,0.079-0.49,0.156-0.736,0.23c0.001-0.117,0.002-0.234,0.002-0.352c0-4.322-1.436-8.331-3.873-11.604
			c-1.769-2.378-4.065-4.369-6.723-5.811v19.288c-0.273-0.001-0.545-0.005-0.815-0.011V6.196c-2.579,1.4-4.818,3.316-6.566,5.603
			c-2.532,3.311-4.03,7.397-4.03,11.812c0,0.077,0,0.155,0.001,0.232c-0.246-0.074-0.492-0.15-0.734-0.229c0-0.001,0-0.003,0-0.004
			c0-4.392,1.434-8.47,3.876-11.826c1.589-2.185,3.605-4.063,5.929-5.522c-4.565,0.442-8.689,2.431-11.837,5.435
			c-2.443,2.331-4.298,5.272-5.318,8.573c-0.216-0.13-0.431-0.262-0.644-0.396c0.992-3.111,2.703-5.907,4.935-8.191
			c3.763-3.851,9.008-6.248,14.796-6.248C32.225,5.435,37.647,8.017,41.435,12.126"/>
		<path fill-rule="evenodd" clip-rule="evenodd" fill="#00417E" d="M8.579,15.323c0.149-0.242,0.303-0.482,0.462-0.719
			c3.382,4.433,9.829,7.438,17.201,7.438c7.353,0,13.787-2.991,17.176-7.405c0.158,0.236,0.312,0.475,0.461,0.718
			c-3.589,4.486-10.156,7.502-17.637,7.502C18.743,22.857,12.162,19.828,8.579,15.323"/>
		<path fill-rule="evenodd" clip-rule="evenodd" fill="#00417E" d="M13.394,9.905c0.21-0.166,0.424-0.327,0.641-0.486
			c2.202,3.17,6.85,5.362,12.207,5.362c5.344,0,9.983-2.183,12.191-5.341c0.216,0.159,0.43,0.322,0.64,0.489
			c-2.375,3.357-7.239,5.667-12.831,5.667C20.636,15.597,15.763,13.275,13.394,9.905"/>
		<path fill-rule="evenodd" clip-rule="evenodd" fill="#00417E" d="M52.389,27.594l-2.814-0.049l0.007-0.418l2.067-1.279
			c0.045-0.028,0.088-0.053,0.128-0.074c0.039-0.021,0.077-0.038,0.111-0.05l-2.28-0.04l0.006-0.364l2.814,0.05l-0.008,0.413
			l-2.095,1.308c-0.032,0.02-0.066,0.038-0.101,0.055c-0.035,0.018-0.071,0.032-0.109,0.047l2.28,0.039L52.389,27.594
			 M50.626,30.673c-0.461-0.058-0.807-0.219-1.038-0.485c-0.231-0.266-0.321-0.606-0.271-1.021c0.051-0.414,0.221-0.722,0.508-0.922
			c0.288-0.202,0.663-0.274,1.126-0.218c0.461,0.057,0.808,0.218,1.038,0.483c0.231,0.264,0.322,0.604,0.271,1.017
			c-0.051,0.415-0.221,0.724-0.509,0.927C51.462,30.655,51.087,30.729,50.626,30.673z M50.674,30.279
			c0.358,0.044,0.648-0.004,0.87-0.145c0.221-0.139,0.35-0.356,0.386-0.647c0.036-0.291-0.037-0.53-0.219-0.719
			c-0.181-0.188-0.451-0.305-0.808-0.349c-0.359-0.044-0.649,0.004-0.87,0.143c-0.221,0.14-0.35,0.354-0.385,0.645
			c-0.036,0.292,0.036,0.532,0.217,0.722C50.046,30.119,50.315,30.235,50.674,30.279z M51.784,31.854l-2.742-0.633l0.086-0.372
			l2.742,0.633L51.784,31.854z M51.341,33.534l-2.388-0.64l-0.23,0.858l-0.33-0.089l0.559-2.087l0.33,0.089l-0.229,0.857
			l2.388,0.641L51.341,33.534z M50.17,36.784L47.918,34.8l0.151-0.395l3.003,0.029l-0.149,0.387l-0.891-0.022l-0.397,1.034
			l0.677,0.582L50.17,36.784z M49.37,35.604l0.315-0.818l-1.316-0.038L49.37,35.604z M46.553,37.652l0.495-0.972
			c0.081-0.158,0.147-0.27,0.198-0.338c0.051-0.067,0.108-0.122,0.17-0.165c0.112-0.076,0.233-0.115,0.365-0.118
			c0.131-0.002,0.266,0.032,0.406,0.104c0.135,0.068,0.236,0.156,0.302,0.264c0.067,0.105,0.098,0.23,0.094,0.373
			c0.077-0.083,0.158-0.129,0.244-0.138c0.085-0.009,0.208,0.021,0.368,0.09l0.428,0.182c0.092,0.039,0.164,0.062,0.216,0.066
			c0.053,0.005,0.097-0.006,0.133-0.032l0.07,0.036l-0.2,0.393c-0.069,0.005-0.192-0.029-0.37-0.104
			c-0.004-0.002-0.007-0.004-0.009-0.005l-0.338-0.146c-0.174-0.074-0.301-0.094-0.381-0.059c-0.081,0.033-0.182,0.172-0.305,0.413
			l-0.281,0.551l1.074,0.547L49.06,38.93L46.553,37.652z M47.018,37.469l0.849,0.433l0.296-0.582
			c0.108-0.21,0.149-0.375,0.125-0.497c-0.024-0.12-0.115-0.223-0.274-0.304c-0.149-0.075-0.274-0.088-0.377-0.038
			c-0.103,0.051-0.211,0.187-0.323,0.406L47.018,37.469z M48.136,40.412l-2.097-1.311l-0.471,0.753l-0.29-0.181l1.145-1.832
			l0.29,0.181l-0.471,0.753l2.097,1.311L48.136,40.412z M45.372,42.601l0.228-0.29c0.163,0.122,0.332,0.169,0.509,0.141
			c0.176-0.03,0.332-0.133,0.468-0.306c0.134-0.172,0.204-0.336,0.208-0.49c0.005-0.155-0.054-0.281-0.179-0.38
			c-0.169-0.132-0.443-0.047-0.822,0.256c-0.022,0.019-0.039,0.031-0.052,0.041c-0.306,0.246-0.541,0.383-0.705,0.411
			c-0.163,0.028-0.325-0.021-0.487-0.146c-0.198-0.155-0.3-0.352-0.307-0.589c-0.007-0.238,0.083-0.478,0.27-0.718
			c0.192-0.244,0.405-0.389,0.641-0.431c0.236-0.042,0.464,0.022,0.686,0.192l-0.223,0.288c-0.157-0.105-0.31-0.145-0.461-0.115
			c-0.149,0.029-0.286,0.122-0.409,0.279c-0.115,0.147-0.175,0.291-0.18,0.43c-0.004,0.139,0.048,0.25,0.155,0.334
			c0.172,0.134,0.442,0.052,0.812-0.248c0.055-0.044,0.098-0.078,0.127-0.101c0.006-0.007,0.017-0.015,0.033-0.026
			c0.243-0.194,0.429-0.305,0.556-0.331c0.097-0.021,0.193-0.018,0.289,0.007c0.097,0.025,0.189,0.072,0.277,0.142
			c0.214,0.167,0.324,0.377,0.331,0.629c0.007,0.251-0.092,0.508-0.296,0.769c-0.21,0.27-0.441,0.425-0.695,0.469
			C45.893,42.859,45.635,42.789,45.372,42.601z M45.416,43.902l-2.058-1.92l0.26-0.278l2.059,1.919L45.416,43.902z M43.319,45.996
			l-1.955-2.025l0.301-0.29l2.366,0.557c0.052,0.013,0.099,0.025,0.142,0.038c0.043,0.014,0.081,0.028,0.114,0.044l-1.584-1.641
			l0.262-0.254l1.955,2.025l-0.298,0.287l-2.406-0.558c-0.037-0.009-0.074-0.02-0.11-0.033c-0.036-0.012-0.073-0.026-0.111-0.044
			l1.585,1.642L43.319,45.996z M42.396,46.673l-1.771-2.188l0.297-0.239l1.771,2.187L42.396,46.673z M38.598,46.418l1.305,2.011
			l-0.294,0.192l-1.533-2.361l0.458-0.297l1.758,1.426c0.05,0.04,0.088,0.071,0.115,0.094c0.026,0.024,0.048,0.045,0.067,0.063
			c-0.018-0.045-0.032-0.086-0.044-0.122c-0.011-0.037-0.021-0.072-0.03-0.106l-0.566-2.198l0.459-0.3l1.533,2.361l-0.311,0.201
			l-1.306-2.01c0.015,0.039,0.029,0.079,0.042,0.12c0.013,0.039,0.025,0.081,0.036,0.122l0.565,2.198l-0.303,0.197l-1.764-1.42
			c-0.03-0.022-0.061-0.048-0.091-0.077C38.663,46.484,38.631,46.453,38.598,46.418z M37.069,50.013l-1.321-2.485l0.946-0.503
			c0.346-0.184,0.666-0.222,0.96-0.112c0.294,0.108,0.545,0.358,0.752,0.749c0.215,0.403,0.287,0.769,0.215,1.094
			c-0.071,0.326-0.278,0.58-0.62,0.762L37.069,50.013z M36.818,47.327l-0.581,0.308l1.007,1.895l0.581-0.309
			c0.248-0.132,0.393-0.313,0.435-0.542c0.041-0.228-0.023-0.501-0.191-0.817c-0.161-0.302-0.348-0.5-0.563-0.592
			S37.062,47.196,36.818,47.327z M34.316,51.097l-0.085-3l0.391-0.158l2.027,2.216l-0.385,0.155l-0.591-0.668l-1.027,0.415
			l0.036,0.892L34.316,51.097z M34.632,49.708l0.813-0.328l-0.869-0.988L34.632,49.708z M29.453,52.17l-0.537-2.763l1.97-0.383
			l0.066,0.344l-1.598,0.311l0.16,0.825l1.477-0.287l0.062,0.322l-1.476,0.287l0.18,0.927l1.63-0.317l0.067,0.345L29.453,52.17z
			 M26.552,52.357l-0.245-2.803l1.067-0.094c0.391-0.034,0.7,0.057,0.928,0.271c0.229,0.215,0.362,0.543,0.4,0.983
			c0.04,0.456-0.037,0.819-0.229,1.092c-0.194,0.271-0.483,0.424-0.868,0.458L26.552,52.357z M27.371,49.788l-0.655,0.057
			l0.187,2.137l0.655-0.057c0.28-0.024,0.484-0.134,0.611-0.329c0.128-0.194,0.176-0.47,0.144-0.827
			c-0.029-0.341-0.125-0.596-0.287-0.764C27.864,49.836,27.646,49.763,27.371,49.788z M23.608,52.188l1.286-2.713l0.421,0.037
			l0.799,2.895l-0.413-0.035l-0.223-0.864l-1.104-0.096l-0.373,0.811L23.608,52.188z M24.52,51.094l0.874,0.076l-0.326-1.275
			L24.52,51.094z M21.754,49.054l1.07,0.208c0.174,0.033,0.3,0.066,0.379,0.097c0.079,0.031,0.148,0.07,0.206,0.118
			c0.104,0.086,0.175,0.192,0.214,0.318c0.038,0.125,0.043,0.264,0.013,0.419c-0.029,0.147-0.086,0.269-0.17,0.363
			c-0.085,0.093-0.196,0.156-0.334,0.191c0.102,0.052,0.169,0.117,0.2,0.197c0.032,0.08,0.038,0.206,0.016,0.379l-0.057,0.462
			c-0.013,0.098-0.014,0.174-0.004,0.226c0.01,0.052,0.032,0.092,0.067,0.119l-0.015,0.077l-0.433-0.085
			c-0.024-0.063-0.024-0.191-0.001-0.384c0.001-0.004,0.002-0.008,0.002-0.011l0.047-0.364c0.024-0.188,0.008-0.315-0.048-0.383
			c-0.055-0.068-0.215-0.128-0.48-0.18l-0.608-0.117l-0.23,1.183l-0.371-0.072L21.754,49.054z M22.058,49.45l-0.182,0.935
			l0.641,0.125c0.232,0.045,0.402,0.039,0.512-0.017c0.11-0.058,0.183-0.174,0.217-0.349c0.032-0.163,0.009-0.287-0.068-0.373
			c-0.077-0.085-0.236-0.15-0.479-0.198L22.058,49.45z M19.522,51.434l0.598-2.398l-0.862-0.216l0.083-0.331l2.096,0.522
			l-0.083,0.332l-0.861-0.215l-0.599,2.398L19.522,51.434z M14.372,49.499l1.19-2.551l0.349,0.163l-1.039,2.229l1.271,0.593
			l-0.15,0.322L14.372,49.499z M11.809,48.036l2.312-1.915l0.365,0.211l-0.498,2.962l-0.359-0.207l0.162-0.877l-0.96-0.556
			l-0.68,0.578L11.809,48.036z M13.098,47.43l0.76,0.439l0.243-1.294L13.098,47.43z M9.685,46.456l1.654-2.277l0.339,0.246
			l-0.139,2.427c-0.002,0.053-0.006,0.103-0.012,0.147c-0.005,0.044-0.013,0.084-0.023,0.119l1.341-1.846l0.295,0.215l-1.654,2.276
			L11.15,47.52l0.132-2.466c0.002-0.038,0.007-0.075,0.013-0.113c0.006-0.039,0.014-0.077,0.024-0.117l-1.34,1.846L9.685,46.456z
			 M8.246,43.205c0.322-0.335,0.66-0.515,1.012-0.538c0.351-0.024,0.677,0.108,0.978,0.398c0.3,0.289,0.443,0.609,0.431,0.96
			c-0.013,0.352-0.18,0.694-0.504,1.03c-0.323,0.334-0.66,0.514-1.011,0.539c-0.35,0.025-0.676-0.107-0.976-0.397
			c-0.3-0.29-0.444-0.61-0.432-0.963C7.756,43.882,7.923,43.539,8.246,43.205z M8.53,43.479c-0.25,0.26-0.386,0.521-0.407,0.782
			c-0.022,0.261,0.073,0.494,0.284,0.698s0.446,0.289,0.706,0.258c0.26-0.032,0.515-0.177,0.765-0.437
			c0.251-0.26,0.388-0.521,0.41-0.78c0.022-0.261-0.072-0.492-0.283-0.695c-0.212-0.204-0.448-0.292-0.707-0.261
			C9.037,43.073,8.781,43.219,8.53,43.479z M6.626,43.466l2.156-1.81l0.246,0.294l-2.156,1.809L6.626,43.466z M5.484,42.078
			l1.948-1.522l-0.547-0.7l0.27-0.21l1.33,1.702l-0.27,0.211l-0.547-0.7L5.72,42.381L5.484,42.078z M3.551,39.268l2.94-0.604
			l0.224,0.357l-1.83,2.381l-0.22-0.352l0.555-0.698l-0.587-0.939l-0.872,0.19L3.551,39.268z M4.974,39.338l0.465,0.744l0.822-1.028
			L4.974,39.338z M2.335,36.921l2.508-1.277l0.19,0.373l-1.225,2.099c-0.026,0.047-0.052,0.089-0.078,0.125
			c-0.025,0.037-0.05,0.07-0.075,0.097l2.033-1.035l0.165,0.325l-2.507,1.276l-0.188-0.368l1.237-2.139
			c0.019-0.032,0.04-0.063,0.063-0.095c0.022-0.031,0.047-0.062,0.074-0.093L2.5,37.245L2.335,36.921z M3.958,33.347l0.391,1.018
			c0.064,0.165,0.103,0.29,0.119,0.373c0.015,0.083,0.019,0.162,0.009,0.237c-0.018,0.134-0.07,0.25-0.156,0.351
			c-0.087,0.099-0.202,0.176-0.349,0.232c-0.142,0.054-0.274,0.07-0.398,0.048c-0.124-0.021-0.237-0.082-0.34-0.18
			c0.011,0.113-0.01,0.204-0.061,0.272c-0.051,0.07-0.155,0.142-0.313,0.215l-0.422,0.196c-0.09,0.041-0.155,0.08-0.193,0.116
			c-0.039,0.036-0.061,0.076-0.066,0.12l-0.073,0.028l-0.158-0.412c0.042-0.055,0.15-0.122,0.325-0.204
			c0.004-0.002,0.008-0.003,0.01-0.004l0.335-0.153c0.171-0.08,0.271-0.161,0.299-0.244s-0.006-0.25-0.103-0.503l-0.222-0.578
			l-1.125,0.433l-0.136-0.354L3.958,33.347z M3.784,33.814l-0.89,0.341l0.234,0.61c0.085,0.22,0.18,0.362,0.286,0.426
			s0.243,0.063,0.409-0.001c0.156-0.06,0.249-0.145,0.281-0.255c0.031-0.109,0.003-0.281-0.086-0.511L3.784,33.814z M0.618,31.821
			l2.718-0.728l0.519,1.938l-0.338,0.091L3.096,31.55l-0.812,0.217l0.389,1.453l-0.317,0.085l-0.389-1.453l-0.912,0.244l0.43,1.604
			l-0.34,0.091L0.618,31.821z M0.323,30.092l2.434-0.429l-0.154-0.875l0.337-0.06l0.375,2.127l-0.337,0.06l-0.154-0.874L0.389,30.47
			L0.323,30.092z M0,26.507l2.807-0.197l0.029,0.418l-1.947,1.454c-0.043,0.032-0.083,0.061-0.121,0.085
			c-0.037,0.024-0.073,0.044-0.106,0.06l2.275-0.159l0.025,0.363l-2.807,0.196l-0.029-0.414L2.1,26.829
			c0.031-0.023,0.062-0.044,0.095-0.063c0.034-0.02,0.069-0.038,0.106-0.056l-2.276,0.159L0,26.507z M0.076,25.384l2.812,0.099
			l-0.013,0.381l-2.812-0.098L0.076,25.384z"/>
	</g>
</g>
</svg>
